<svg width="9" height="11" viewBox="0 0 9 11" fill="none" xmlns="http://www.w3.org/2000/svg">
<path d="M4.80955 4.85335C5.86152 4.85335 6.71431 4.00056 6.71431 2.94859C6.71431 1.89661 5.86152 1.04382 4.80955 1.04382C3.75758 1.04382 2.90479 1.89661 2.90479 2.94859C2.90479 4.00056 3.75758 4.85335 4.80955 4.85335Z" stroke="#595959" stroke-width="0.5"/>
<path d="M8.61809 8.66287C8.61905 8.58478 8.61905 8.50525 8.61905 8.42478C8.61905 7.24145 6.91333 6.28192 4.80952 6.28192C2.70571 6.28192 1 7.24145 1 8.42478C1 9.60811 1 10.5676 4.80952 10.5676C5.8719 10.5676 6.6381 10.4929 7.19048 10.3595" stroke="#595959" stroke-width="0.5" stroke-linecap="round"/>
</svg>
