<svg width="8" height="5" viewBox="0 0 8 5" fill="none" xmlns="http://www.w3.org/2000/svg">
<path d="M3.97443 4.18033C3.86875 4.17484 3.76831 4.13265 3.6904 4.06104L0.145655 0.788964C0.101823 0.748309 0.0664258 0.699417 0.0414891 0.645082C0.0165525 0.590747 0.00256502 0.532031 0.000320807 0.472289C-0.00192341 0.412547 0.00761812 0.352948 0.028408 0.296895C0.0491979 0.240842 0.080826 0.189433 0.121485 0.145603C0.162143 0.101774 0.21104 0.0663818 0.265377 0.0414489C0.319714 0.0165159 0.378429 0.00253041 0.438172 0.000290253C0.497914 -0.00194991 0.557511 0.0075997 0.613563 0.0283934C0.669614 0.0491871 0.721023 0.0808175 0.76485 0.121479L4 3.10668L7.23515 0.121479C7.27898 0.0808172 7.33038 0.0491868 7.38643 0.0283931C7.44248 0.0075994 7.50208 -0.00195021 7.56182 0.000289942C7.62156 0.0025301 7.68028 0.0165156 7.73462 0.0414485C7.78895 0.0663815 7.83785 0.101773 7.87851 0.145603C7.91917 0.189433 7.9508 0.240842 7.97159 0.296895C7.99238 0.352948 8.00192 0.412547 7.99968 0.472289C7.99743 0.532031 7.98344 0.590746 7.9585 0.645082C7.93357 0.699417 7.89818 0.748308 7.85434 0.788964L4.30959 4.06104C4.26462 4.10244 4.21176 4.13434 4.15417 4.15484C4.09658 4.17534 4.03545 4.18401 3.97443 4.18033Z" fill="white"/>
</svg>
