<svg width="13" height="11" viewBox="0 0 13 11" fill="none" xmlns="http://www.w3.org/2000/svg">
<path d="M0.964241 1.04806V0.973345C0.964555 0.858063 0.987769 0.744024 1.0325 0.638028C1.07723 0.532032 1.14257 0.436247 1.2246 0.356384C1.3927 0.191228 1.61778 0.099098 1.85191 0.0996115H8.55646C8.79057 0.0993684 9.01559 0.191457 9.18389 0.356384C9.26589 0.436265 9.33118 0.532058 9.37586 0.638055C9.42055 0.744051 9.44372 0.85808 9.444 0.973345V9.16541C9.44379 9.28079 9.42065 9.39493 9.37596 9.50104C9.33127 9.60716 9.26595 9.70306 9.18389 9.78303C9.01557 9.94791 8.79055 10.04 8.55646 10.0397H8.48066V10.1144C8.48025 10.2297 8.45694 10.3438 8.41212 10.4497C8.3673 10.5557 8.30189 10.6515 8.21978 10.7313C8.0518 10.8964 7.82694 10.9885 7.59299 10.9881H0.887541C0.653632 10.9885 0.428811 10.8964 0.260882 10.7313C0.178772 10.6515 0.113359 10.5557 0.0685394 10.4497C0.0237197 10.3438 0.000410406 10.2297 0 10.1144V1.92231C0.000345775 1.80689 0.0236231 1.69272 0.068444 1.58661C0.113265 1.4805 0.178712 1.38463 0.260882 1.3047C0.428832 1.13974 0.65365 1.04766 0.887541 1.04806H0.964241ZM4.2402 3.15414C4.47655 3.15346 4.70387 3.24607 4.87397 3.41235C4.95688 3.49314 5.02283 3.59006 5.06788 3.69731C5.11293 3.80455 5.13615 3.9199 5.13615 4.03646C5.13615 4.15301 5.11293 4.26837 5.06788 4.37561C5.02283 4.48285 4.95688 4.57977 4.87397 4.66056C4.7034 4.82608 4.47636 4.91847 4.2402 4.91847C4.00404 4.91847 3.777 4.82608 3.60643 4.66056C3.52343 4.57983 3.45739 4.48293 3.41228 4.37568C3.36717 4.26843 3.34391 4.15304 3.34391 4.03646C3.34391 3.91987 3.36717 3.80449 3.41228 3.69724C3.45739 3.58999 3.52343 3.49309 3.60643 3.41235C3.77653 3.24606 4.00385 3.15344 4.2402 3.15414ZM4.63922 3.64396C4.53206 3.5395 4.38915 3.48114 4.24046 3.48114C4.09177 3.48114 3.94886 3.5395 3.8417 3.64396C3.78944 3.6947 3.74785 3.75563 3.71944 3.82308C3.69103 3.89053 3.67639 3.96312 3.67639 4.03646C3.67639 4.1098 3.69103 4.18238 3.71944 4.24984C3.74785 4.31729 3.78944 4.37822 3.8417 4.42896C3.94886 4.53342 4.09177 4.59177 4.24046 4.59177C4.38915 4.59177 4.53206 4.53342 4.63922 4.42896C4.69151 4.37824 4.73313 4.31731 4.76156 4.24986C4.78999 4.1824 4.80465 4.10981 4.80465 4.03646C4.80465 3.96311 4.78999 3.89051 4.76156 3.82306C4.73313 3.7556 4.69151 3.69468 4.63922 3.64396ZM4.3438 6.70373C4.33779 6.70438 4.33174 6.70464 4.3257 6.70452L4.31755 6.70517C4.31082 6.70517 4.30345 6.70517 4.29672 6.70583H4.29129C4.28392 6.70583 4.2759 6.70583 4.26853 6.70583H4.21239C4.20502 6.70583 4.19687 6.70583 4.1895 6.70583H4.1842C4.17747 6.70517 4.17126 6.70517 4.16337 6.70517L4.15522 6.70452C4.14918 6.70465 4.14313 6.70438 4.13712 6.70373H4.12638H4.11759C3.60391 6.67576 3.1175 6.46072 2.74786 6.09817C2.70088 6.05246 2.65624 6.00433 2.61412 5.95399L2.55023 5.88125L2.55294 5.87784C2.24741 5.48056 2.09816 4.98254 2.1341 4.48017C2.17003 3.9778 2.38859 3.50681 2.74747 3.15833C3.14883 2.76766 3.68376 2.54949 4.24027 2.54949C4.79677 2.54949 5.33171 2.76766 5.73306 3.15833C6.09181 3.50676 6.31031 3.97762 6.34631 4.47985C6.38232 4.98208 6.23326 5.48 5.92798 5.87731L5.93069 5.88072L5.86745 5.95281C5.82515 6.00314 5.78001 6.05151 5.73306 6.09778C5.36342 6.46032 4.87701 6.67537 4.36333 6.70334H4.35467L4.3438 6.70373ZM2.7811 5.6309C2.95253 5.46944 3.14921 5.33793 3.36314 5.24174C3.63941 5.11826 3.93805 5.05448 4.24001 5.05448C4.54196 5.05448 4.8406 5.11826 5.11688 5.24174C5.3308 5.33793 5.52749 5.46944 5.69891 5.6309C5.93763 5.29549 6.04874 4.88397 6.01178 4.47212C5.97483 4.06027 5.79229 3.67582 5.49779 3.38955C5.1595 3.06037 4.70868 2.87654 4.23968 2.87654C3.77069 2.87654 3.31987 3.06037 2.98158 3.38955C2.68705 3.67581 2.5045 4.06028 2.46757 4.47214C2.43063 4.884 2.5418 5.29552 2.78058 5.6309H2.7811ZM5.48434 5.87993C5.3367 5.73769 5.16608 5.62216 4.97991 5.53836C4.74681 5.43443 4.49493 5.38076 4.24027 5.38076C3.9856 5.38076 3.73373 5.43443 3.50063 5.53836C3.31445 5.62216 3.14384 5.73769 2.9962 5.87993C3.32071 6.19111 3.74776 6.36896 4.19441 6.37893H4.19571C4.20308 6.37893 4.21045 6.37959 4.21795 6.37959H4.26413C4.27086 6.37959 4.27836 6.37893 4.28573 6.37893H4.28702C4.73367 6.36893 5.16072 6.19109 5.48524 5.87993H5.48434ZM11.2892 3.36595V9.02569H11.7659V3.36595H11.2892ZM10.957 9.02569V3.36595H10.4796V9.02569H10.957ZM11.1231 10.4514L11.6663 9.35259H10.5791L11.1231 10.4514ZM11.6764 10.0781L11.2724 10.8954C11.2582 10.9232 11.2369 10.9465 11.2106 10.9627C11.1843 10.979 11.1541 10.9876 11.1233 10.9877C11.0925 10.9878 11.0623 10.9793 11.0359 10.9631C11.0096 10.947 10.9881 10.9238 10.9738 10.8961L10.1675 9.26726V9.26595L10.1669 9.26464L10.1656 9.26254V9.26123L10.1642 9.25926L10.1635 9.25795V9.25664V9.25533L10.1627 9.25467L10.1621 9.25336V9.25205V9.25074V9.24865L10.1615 9.24733L10.1607 9.24537V9.24406V9.24275V9.24144L10.16 9.24013V9.23737V9.23606L10.1593 9.23475L10.1586 9.23344V9.23082V9.22702V9.2244V9.22374L10.1578 9.2223V9.21968L10.1572 9.21837V9.21575V9.21443V9.21247V9.21116V9.2071L10.1565 9.20447V9.20316V9.19792C10.1559 9.19576 10.1556 9.19349 10.1558 9.19124V2.53141C10.1561 2.42179 10.178 2.31333 10.2202 2.21239C10.2624 2.11145 10.324 2.02005 10.4015 1.94355C10.5594 1.78581 10.7722 1.69738 10.9939 1.69739H11.2602C11.4819 1.69734 11.6947 1.78577 11.8526 1.94355C11.9301 2.02005 11.9917 2.11145 12.0339 2.21239C12.0761 2.31333 12.098 2.42179 12.0983 2.53141V9.18914C12.0984 9.21668 12.0915 9.24378 12.0782 9.26778L11.6764 10.0781ZM11.7659 3.03945V2.53141C11.7659 2.46446 11.7526 2.3982 11.727 2.33649C11.7014 2.27479 11.6639 2.21887 11.6167 2.17201C11.5215 2.07733 11.3935 2.02428 11.2602 2.02429H10.9852C10.852 2.0244 10.724 2.07743 10.6289 2.17201C10.5817 2.21887 10.5442 2.27479 10.5186 2.33649C10.493 2.3982 10.4797 2.46446 10.4796 2.53141V3.03906H11.7659V3.03945ZM6.20774 9.75839C6.18605 9.75927 6.16441 9.7557 6.14412 9.7479C6.12382 9.74009 6.10529 9.72822 6.08964 9.71298C6.07398 9.69773 6.06153 9.67945 6.05302 9.65921C6.04451 9.63897 6.04013 9.6172 6.04013 9.5952C6.04013 9.5732 6.04451 9.55143 6.05302 9.5312C6.06153 9.51096 6.07398 9.49267 6.08964 9.47743C6.10529 9.46219 6.12382 9.45031 6.14412 9.44251C6.16441 9.4347 6.18605 9.43114 6.20774 9.43202H6.96737C6.98906 9.43114 7.0107 9.4347 7.03099 9.44251C7.05129 9.45031 7.06982 9.46219 7.08547 9.47743C7.10113 9.49267 7.11358 9.51096 7.12209 9.5312C7.1306 9.55143 7.13498 9.5732 7.13498 9.5952C7.13498 9.6172 7.1306 9.63897 7.12209 9.65921C7.11358 9.67945 7.10113 9.69773 7.08547 9.71298C7.06982 9.72822 7.05129 9.74009 7.03099 9.7479C7.0107 9.7557 6.98906 9.75927 6.96737 9.75839H6.20774ZM4.77412 9.75839C4.75243 9.75927 4.73079 9.7557 4.7105 9.7479C4.6902 9.74009 4.67167 9.72822 4.65602 9.71298C4.64036 9.69773 4.62791 9.67945 4.6194 9.65921C4.61089 9.63897 4.60651 9.6172 4.60651 9.5952C4.60651 9.5732 4.61089 9.55143 4.6194 9.5312C4.62791 9.51096 4.64036 9.49267 4.65602 9.47743C4.67167 9.46219 4.6902 9.45031 4.7105 9.44251C4.73079 9.4347 4.75243 9.43114 4.77412 9.43202H5.534C5.55569 9.43114 5.57734 9.4347 5.59763 9.44251C5.61793 9.45031 5.63646 9.46219 5.65211 9.47743C5.66776 9.49267 5.68022 9.51096 5.68873 9.5312C5.69723 9.55143 5.70162 9.5732 5.70162 9.5952C5.70162 9.6172 5.69723 9.63897 5.68873 9.65921C5.68022 9.67945 5.66776 9.69773 5.65211 9.71298C5.63646 9.72822 5.61793 9.74009 5.59763 9.7479C5.57734 9.7557 5.55569 9.75927 5.534 9.75839H4.77412ZM1.5076 9.75839C1.48646 9.75839 1.46552 9.75417 1.44598 9.74597C1.42644 9.73777 1.40869 9.72575 1.39374 9.71059C1.37879 9.69544 1.36692 9.67745 1.35883 9.65765C1.35074 9.63785 1.34657 9.61663 1.34657 9.5952C1.34657 9.57377 1.35074 9.55255 1.35883 9.53275C1.36692 9.51295 1.37879 9.49497 1.39374 9.47981C1.40869 9.46466 1.42644 9.45264 1.44598 9.44444C1.46552 9.43624 1.48646 9.43202 1.5076 9.43202H4.09974C4.12143 9.43114 4.14307 9.4347 4.16336 9.44251C4.18366 9.45031 4.20219 9.46219 4.21784 9.47743C4.2335 9.49267 4.24595 9.51096 4.25446 9.5312C4.26297 9.55143 4.26735 9.5732 4.26735 9.5952C4.26735 9.6172 4.26297 9.63897 4.25446 9.65921C4.24595 9.67945 4.2335 9.69773 4.21784 9.71298C4.20219 9.72822 4.18366 9.74009 4.16336 9.7479C4.14307 9.7557 4.12143 9.75927 4.09974 9.75839H1.5076ZM1.5076 8.71924C1.46472 8.71924 1.4236 8.70198 1.39328 8.67125C1.36296 8.64053 1.34593 8.59885 1.34593 8.5554C1.34593 8.51195 1.36296 8.47027 1.39328 8.43955C1.4236 8.40882 1.46472 8.39156 1.5076 8.39156H6.97293C7.01581 8.39156 7.05693 8.40882 7.08725 8.43955C7.11757 8.47027 7.1346 8.51195 7.1346 8.5554C7.1346 8.59885 7.11757 8.64053 7.08725 8.67125C7.05693 8.70198 7.01581 8.71924 6.97293 8.71924H1.5076ZM1.5076 7.68009C1.46472 7.68009 1.4236 7.66283 1.39328 7.63211C1.36296 7.60138 1.34593 7.55971 1.34593 7.51625C1.34593 7.4728 1.36296 7.43112 1.39328 7.4004C1.4236 7.36967 1.46472 7.35241 1.5076 7.35241H6.97293C7.01581 7.35241 7.05693 7.36967 7.08725 7.4004C7.11757 7.43112 7.1346 7.4728 7.1346 7.51625C7.1346 7.55971 7.11757 7.60138 7.08725 7.63211C7.05693 7.66283 7.01581 7.68009 6.97293 7.68009H1.5076ZM8.41263 2.71937C8.43338 2.73421 8.45035 2.75383 8.46216 2.77662C8.47397 2.7994 8.48026 2.82471 8.48053 2.85044V9.71212H8.55646C8.70272 9.71246 8.84336 9.655 8.94849 9.55195C8.99993 9.50193 9.04091 9.44193 9.06897 9.37552C9.09704 9.30911 9.11162 9.23766 9.11185 9.16541V0.973345C9.11157 0.901207 9.09696 0.829863 9.0689 0.763568C9.04083 0.697272 8.99988 0.637381 8.94849 0.587466C8.8436 0.483956 8.70286 0.42622 8.55646 0.426639H1.85178C1.70521 0.426369 1.56433 0.484071 1.4591 0.587466C1.40771 0.637381 1.36676 0.697272 1.33869 0.763568C1.31063 0.829863 1.29602 0.901207 1.29574 0.973345V1.04806H6.37589L6.3799 1.04871H6.38391V1.04937H6.38856H6.39193H6.3927C6.39374 1.04991 6.39491 1.05014 6.39606 1.05002H6.39671L6.40007 1.05081H6.40137L6.40408 1.05146H6.40473L6.40809 1.05278H6.41146L6.41223 1.05343H6.41482L6.4156 1.05409H6.41624L6.41896 1.05474H6.42025L6.42297 1.0554H6.42426V1.05605H6.42633H6.42698L6.42827 1.05671H6.43034L6.43163 1.05736L6.4337 1.05802L6.43577 1.05867L6.43707 1.05946H6.43836H6.43914L6.44108 1.06077L6.4425 1.06143L6.44444 1.06274L6.44573 1.06339L6.4478 1.0647H6.44909L6.45116 1.06601L6.45246 1.06667L6.45453 1.06798L6.45582 1.06929L6.45789 1.06995L6.45931 1.07126L6.46061 1.0727L6.46268 1.07401L6.46397 1.07466L6.46526 1.07598L6.46733 1.07729L6.46863 1.0786L6.47005 1.07991L6.47134 1.08122L6.47341 1.08253L6.4747 1.08384L6.476 1.08528L6.47742 1.08659L6.47871 1.0879L8.41263 2.71937ZM8.14838 3.01415H6.36347C6.34195 3.01452 6.32058 3.01057 6.30057 3.00254C6.28056 2.9945 6.26232 2.98254 6.24689 2.96734C6.23145 2.95214 6.21914 2.934 6.21064 2.91396C6.20215 2.89392 6.19765 2.87238 6.1974 2.85057V1.37443H0.887541C0.741165 1.37416 0.600481 1.43188 0.495507 1.53526C0.444078 1.58528 0.40311 1.64528 0.375045 1.71169C0.34698 1.7781 0.332392 1.84955 0.332149 1.92179V10.1139C0.332427 10.186 0.347034 10.2573 0.375099 10.3236C0.403165 10.3899 0.444115 10.4498 0.495507 10.4997C0.600481 10.6031 0.741165 10.6608 0.887541 10.6606H7.59286C7.73924 10.6609 7.87994 10.6031 7.9849 10.4997C8.03631 10.4498 8.07728 10.3899 8.10537 10.3237C8.13346 10.2574 8.14809 10.186 8.14838 10.1139V3.01415ZM6.52916 1.56501V2.68752H7.86461L6.52916 1.56501Z" fill="#595959"/>
</svg>
