<svg width="22" height="23" viewBox="0 0 22 23" fill="none" xmlns="http://www.w3.org/2000/svg">
<path d="M19.8445 15.5604L16.7338 15.2052C16.368 15.1622 15.9973 15.2027 15.6494 15.3236C15.3015 15.4445 14.9856 15.6427 14.7253 15.9033L12.4719 18.1567C8.99521 16.3885 6.16934 13.5627 4.40115 10.086L6.66683 7.8203C7.19345 7.29368 7.45064 6.55886 7.36491 5.8118L7.00975 2.72557C6.94031 2.12814 6.6536 1.5771 6.20419 1.17737C5.75478 0.777645 5.17406 0.557148 4.57261 0.557863H2.45389C1.06998 0.557863 -0.0812297 1.70908 0.00449889 3.09298C0.653587 13.5519 9.01825 21.9043 19.4649 22.5534C20.8488 22.6391 22 21.4879 22 20.104V17.9853C22.0122 16.7483 21.0815 15.7073 19.8445 15.5604Z" fill="white"/>
</svg>
