<svg width="11" height="10" viewBox="0 0 11 10" fill="none" xmlns="http://www.w3.org/2000/svg">
<path d="M5.13131 6.59314C5.14146 6.60553 5.15442 6.61555 5.16921 6.62245C5.18401 6.62934 5.20025 6.63292 5.2167 6.63292C5.23316 6.63292 5.2494 6.62934 5.2642 6.62245C5.27899 6.61555 5.29195 6.60553 5.3021 6.59314L6.82016 4.75654C6.87573 4.68915 6.82558 4.58935 6.73477 4.58935H5.73041V0.203298C5.73041 0.146269 5.68161 0.0996094 5.62197 0.0996094H4.80872C4.74909 0.0996094 4.70029 0.146269 4.70029 0.203298V4.58805H3.69864C3.60783 4.58805 3.55768 4.68785 3.61325 4.75525L5.13131 6.59314ZM10.1775 6.1395H9.36427C9.30463 6.1395 9.25583 6.18616 9.25583 6.24319V8.2392H1.17757V6.24319C1.17757 6.18616 1.12878 6.1395 1.06914 6.1395H0.255894C0.196256 6.1395 0.147461 6.18616 0.147461 6.24319V8.80949C0.147461 9.0389 0.341285 9.22425 0.581193 9.22425H9.85222C10.0921 9.22425 10.2859 9.0389 10.2859 8.80949V6.24319C10.2859 6.18616 10.2372 6.1395 10.1775 6.1395Z" fill="#595959"/>
</svg>
