<svg width="9" height="9" viewBox="0 0 9 9" fill="none" xmlns="http://www.w3.org/2000/svg">
<path d="M4.18793 6.07133C4.19632 6.08157 4.20703 6.08986 4.21926 6.09555C4.23148 6.10125 4.24491 6.10421 4.25851 6.10421C4.27212 6.10421 4.28554 6.10125 4.29777 6.09555C4.31 6.08986 4.32071 6.08157 4.32909 6.07133L5.58386 4.55327C5.6298 4.49757 5.58834 4.41507 5.51328 4.41507H4.68312V0.789746C4.68312 0.742608 4.64279 0.704041 4.59349 0.704041H3.92129C3.872 0.704041 3.83167 0.742608 3.83167 0.789746V4.414H3.00374C2.92868 4.414 2.88723 4.4965 2.93316 4.5522L4.18793 6.07133ZM8.35892 5.69637H7.68672C7.63743 5.69637 7.59709 5.73493 7.59709 5.78207V7.4319H0.919932V5.78207C0.919932 5.73493 0.8796 5.69637 0.830305 5.69637H0.158108C0.108813 5.69637 0.0684814 5.73493 0.0684814 5.78207V7.90328C0.0684814 8.0929 0.228689 8.2461 0.426987 8.2461H8.09004C8.28834 8.2461 8.44854 8.0929 8.44854 7.90328V5.78207C8.44854 5.73493 8.40821 5.69637 8.35892 5.69637Z" fill="white"/>
</svg>
