<svg width="11" height="12" viewBox="0 0 11 12" fill="none" xmlns="http://www.w3.org/2000/svg">
<path d="M4.82519 4.86901C5.88149 4.86901 6.73779 4.01271 6.73779 2.95642C6.73779 1.90012 5.88149 1.04382 4.82519 1.04382C3.7689 1.04382 2.9126 1.90012 2.9126 2.95642C2.9126 4.01271 3.7689 4.86901 4.82519 4.86901Z" stroke="#595959" stroke-width="0.5"/>
<path d="M9.80367 11.0438L9.12757 10.3677M9.12757 10.3677L8.45147 9.69163M9.12757 10.3677L9.80367 9.69163M9.12757 10.3677L8.45147 11.0438M8.64942 8.69421C8.65038 8.61579 8.65038 8.53594 8.65038 8.45514C8.65038 7.26694 6.93765 6.30347 4.82519 6.30347C2.71273 6.30347 1 7.26694 1 8.45514C1 9.64333 1 10.6068 4.82519 10.6068C5.89194 10.6068 6.66128 10.5317 7.21593 10.3979" stroke="#595959" stroke-width="0.5" stroke-linecap="round"/>
</svg>
