<svg width="22" height="23" viewBox="0 0 22 23" fill="none" xmlns="http://www.w3.org/2000/svg">
<path d="M7.33333 22.5579C5.98889 22.5579 4.83796 22.0792 3.88056 21.1218C2.92315 20.1643 2.44444 19.0134 2.44444 17.669V7.67731C1.73148 7.41249 1.14604 6.96964 0.688111 6.34875C0.230185 5.72786 0.000814815 5.01979 0 4.22453C0 3.20601 0.356481 2.34027 1.06944 1.62731C1.78241 0.914343 2.64815 0.557861 3.66667 0.557861C4.68518 0.557861 5.55093 0.914343 6.26389 1.62731C6.97685 2.34027 7.33333 3.20601 7.33333 4.22453C7.33333 5.01897 7.10437 5.72705 6.64644 6.34875C6.18852 6.97045 5.60267 7.41331 4.88889 7.67731V17.669C4.88889 18.3412 5.12844 18.9169 5.60756 19.396C6.08667 19.8751 6.66193 20.1142 7.33333 20.1134C8.00556 20.1134 8.58122 19.8743 9.06033 19.396C9.53944 18.9177 9.77859 18.342 9.77778 17.669V5.44675C9.77778 4.10231 10.2565 2.95138 11.2139 1.99397C12.1713 1.03657 13.3222 0.557861 14.6667 0.557861C16.0111 0.557861 17.162 1.03657 18.1194 1.99397C19.0769 2.95138 19.5556 4.10231 19.5556 5.44675V15.4384C20.2685 15.7032 20.8544 16.1465 21.3131 16.7682C21.7719 17.3899 22.0008 18.0976 22 18.8912C22 19.9097 21.6435 20.7755 20.9306 21.4884C20.2176 22.2014 19.3519 22.5579 18.3333 22.5579C17.3148 22.5579 16.4491 22.2014 15.7361 21.4884C15.0231 20.7755 14.6667 19.9097 14.6667 18.8912C14.6667 18.0968 14.896 17.3838 15.3548 16.7523C15.8135 16.1208 16.399 15.6829 17.1111 15.4384V5.44675C17.1111 4.77453 16.872 4.19927 16.3937 3.72097C15.9154 3.24268 15.3397 3.00312 14.6667 3.00231C13.9944 3.00231 13.4192 3.24186 12.9409 3.72097C12.4626 4.20008 12.223 4.77534 12.2222 5.44675V17.669C12.2222 19.0134 11.7435 20.1643 10.7861 21.1218C9.8287 22.0792 8.67778 22.5579 7.33333 22.5579Z" fill="white"/>
</svg>
