<svg width="22" height="23" viewBox="0 0 22 23" fill="none" xmlns="http://www.w3.org/2000/svg">
<path d="M3.09656 22.4421C4.80674 22.4421 6.19311 21.0558 6.19311 19.3456C6.19311 17.6354 4.80674 16.249 3.09656 16.249C1.38638 16.249 0 17.6354 0 19.3456C0 21.0558 1.38638 22.4421 3.09656 22.4421Z" fill="#595959"/>
<path d="M2.2585 8.56438C1.06533 8.36552 0 9.34562 0 10.553C0 11.5615 0.752833 12.3712 1.74714 12.5416C5.89482 13.266 9.16183 16.5472 9.90046 20.6949C10.0709 21.6892 10.8806 22.4421 11.8891 22.4421C13.0964 22.4421 14.0765 21.3767 13.8919 20.1836C13.4183 17.2706 12.0398 14.5807 9.95168 12.4952C7.86361 10.4097 5.172 9.0344 2.2585 8.56438ZM2.21588 0.453676C1.03692 0.325837 0 1.27753 0 2.45649C0 3.49341 0.781241 4.34568 1.80396 4.44511C10.3408 5.29737 17.1305 12.0871 17.9828 20.6239C18.0822 21.6608 18.9344 22.4421 19.9714 22.4421C21.1645 22.4421 22.102 21.4051 21.9884 20.2262C20.9515 9.80016 12.6561 1.4906 2.21588 0.453676Z" fill="#595959"/>
</svg>
