<svg width="20" height="23" viewBox="0 0 20 23" fill="none" xmlns="http://www.w3.org/2000/svg">
<path d="M9.62503 22.4421C11.1427 22.4421 12.3737 21.2111 12.3737 19.6921H6.87632C6.87632 21.2111 8.10737 22.4421 9.62503 22.4421ZM18.8801 16.0093C18.0499 15.1173 16.4966 13.7753 16.4966 9.37964C16.4966 6.04097 14.1557 3.36831 10.9992 2.71261V1.81714C10.9992 1.05788 10.3839 0.442139 9.62503 0.442139C8.8662 0.442139 8.25089 1.05788 8.25089 1.81714V2.71261C5.0944 3.36831 2.75347 6.04097 2.75347 9.37964C2.75347 13.7753 1.20015 15.1173 0.369991 16.0093C0.112178 16.2864 -0.00211873 16.6177 2.97081e-05 16.9421C0.00475627 17.6468 0.557764 18.3171 1.37933 18.3171H17.8707C18.6923 18.3171 19.2457 17.6468 19.25 16.9421C19.2522 16.6177 19.1379 16.286 18.8801 16.0093Z" fill="#595959"/>
</svg>
