<svg width="18" height="18" viewBox="0 0 18 18" fill="none" xmlns="http://www.w3.org/2000/svg">
<path d="M3.3047 11.3199H1M17 11.3199H14.6953M3.3047 6.68011H1M17 6.68011H14.6953M6.68011 3.3047V1M6.68011 17V14.6953M11.3199 3.3047V1M11.3199 17V14.6953M13.4297 3.3047H4.57032C4.23466 3.3047 3.91274 3.43804 3.67539 3.67539C3.43804 3.91274 3.3047 4.23466 3.3047 4.57032V13.4297C3.3047 13.7653 3.43804 14.0873 3.67539 14.3246C3.91274 14.562 4.23466 14.6953 4.57032 14.6953H13.4297C13.7653 14.6953 14.0873 14.562 14.3246 14.3246C14.562 14.0873 14.6953 13.7653 14.6953 13.4297V4.57032C14.6953 4.23466 14.562 3.91274 14.3246 3.67539C14.0873 3.43804 13.7653 3.3047 13.4297 3.3047Z" stroke="white" stroke-linecap="round" stroke-linejoin="round"/>
<path d="M6.04725 9.31639C5.69161 9.25564 5.69161 8.74433 6.04725 8.68232C6.67765 8.57244 7.26106 8.27736 7.72313 7.83467C8.1852 7.39199 8.505 6.82175 8.64177 6.19663L8.66456 6.09791C8.74049 5.74607 9.24295 5.74354 9.32268 6.09538L9.34799 6.20929C9.48998 6.83203 9.81286 7.39891 10.2761 7.83869C10.7393 8.27847 11.3221 8.57153 11.9514 8.68105C12.3095 8.74307 12.3095 9.25691 11.9514 9.31892C11.3223 9.42835 10.7395 9.72123 10.2764 10.1608C9.81318 10.6003 9.4902 11.1669 9.34799 11.7894L9.32268 11.9033C9.24295 12.2552 8.74049 12.2526 8.66456 11.9008L8.64304 11.8033C8.5064 11.1778 8.18651 10.6072 7.72418 10.1642C7.26185 9.7213 6.67805 9.42613 6.04725 9.31639Z" stroke="white" stroke-linecap="round" stroke-linejoin="round"/>
</svg>
