<svg width="29" height="23" viewBox="0 0 29 23" fill="none" xmlns="http://www.w3.org/2000/svg">
<path d="M27.4699 13.0036H24.5783C24.1687 13.0036 23.8255 12.8648 23.5489 12.5873C23.2723 12.3097 23.1335 11.9665 23.1325 11.5579C23.1325 11.1482 23.2713 10.8051 23.5489 10.5285C23.8265 10.2518 24.1696 10.113 24.5783 10.1121H27.4699C27.8795 10.1121 28.2231 10.2509 28.5007 10.5285C28.7783 10.8061 28.9166 11.1492 28.9157 11.5579C28.9157 11.9675 28.7769 12.3111 28.4993 12.5887C28.2217 12.8663 27.8786 13.0046 27.4699 13.0036ZM21.1084 18.4976C21.3494 18.1603 21.6626 17.9675 22.0482 17.9193C22.4337 17.8711 22.7952 17.9675 23.1325 18.2085L25.4458 19.9434C25.7831 20.1844 25.9759 20.4976 26.0241 20.8832C26.0723 21.2687 25.9759 21.6302 25.7349 21.9675C25.494 22.3049 25.1807 22.4976 24.7952 22.5458C24.4096 22.594 24.0482 22.4976 23.7108 22.2567L21.3976 20.5217C21.0602 20.2808 20.8675 19.9675 20.8193 19.582C20.7711 19.1964 20.8675 18.835 21.1084 18.4976ZM25.4458 3.17232L23.1325 4.90726C22.7952 5.14822 22.4337 5.24461 22.0482 5.19642C21.6626 5.14822 21.3494 4.95545 21.1084 4.6181C20.8675 4.28075 20.7711 3.91931 20.8193 3.53376C20.8675 3.14822 21.0602 2.83497 21.3976 2.59401L23.7108 0.859066C24.0482 0.618102 24.4096 0.521717 24.7952 0.56991C25.1807 0.618102 25.494 0.810874 25.7349 1.14822C25.9759 1.48557 26.0723 1.84702 26.0241 2.23256C25.9759 2.6181 25.7831 2.93135 25.4458 3.17232ZM4.33735 15.8952H2.89157C2.09639 15.8952 1.4159 15.6123 0.85012 15.0465C0.284337 14.4808 0.000963855 13.7998 0 13.0036V10.1121C0 9.3169 0.283374 8.63642 0.85012 8.07063C1.41687 7.50485 2.09735 7.22148 2.89157 7.22051H8.6747L13.6988 4.18437C14.1807 3.89521 14.6689 3.89521 15.1634 4.18437C15.6578 4.47352 15.9046 4.89521 15.9036 5.44943V17.6663C15.9036 18.2205 15.6564 18.6422 15.1619 18.9314C14.6675 19.2205 14.1798 19.2205 13.6988 18.9314L8.6747 15.8952H7.22892V20.2326C7.22892 20.6422 7.09012 20.9858 6.81253 21.2634C6.53494 21.541 6.19181 21.6793 5.78313 21.6783C5.37349 21.6783 5.03036 21.5395 4.75373 21.262C4.47711 20.9844 4.33831 20.6412 4.33735 20.2326V15.8952ZM17.3494 16.4012V6.71449C18 7.2928 18.5243 7.99786 18.9224 8.82967C19.3205 9.66148 19.519 10.5709 19.5181 11.5579C19.5181 12.5458 19.319 13.4557 18.921 14.2875C18.5229 15.1193 17.999 15.8239 17.3494 16.4012Z" fill="white"/>
</svg>
