<svg width="22" height="23" viewBox="0 0 22 23" fill="none" xmlns="http://www.w3.org/2000/svg">
<path d="M9.84159 4.682H13.2824L17.0558 0.897122C17.1624 0.789622 17.2893 0.704297 17.429 0.646068C17.5688 0.58784 17.7187 0.557861 17.8701 0.557861C18.0215 0.557861 18.1714 0.58784 18.3112 0.646068C18.451 0.704297 18.5778 0.789622 18.6844 0.897122L21.6435 3.86768C21.8571 4.08257 21.9771 4.37326 21.9771 4.67627C21.9771 4.97927 21.8571 5.26996 21.6435 5.48485L19.0171 8.1228H9.84159V10.4167C9.84159 10.7208 9.72075 11.0126 9.50566 11.2277C9.29057 11.4428 8.99884 11.5636 8.69466 11.5636C8.39047 11.5636 8.09875 11.4428 7.88366 11.2277C7.66856 11.0126 7.54773 10.7208 7.54773 10.4167V6.97587C7.54773 6.36749 7.7894 5.78404 8.21958 5.35386C8.64977 4.92367 9.23322 4.682 9.84159 4.682ZM2.96 10.4167V15.0044L0.33352 17.6309C0.119902 17.8458 0 18.1365 0 18.4395C0 18.7425 0.119902 19.0332 0.33352 19.248L3.29261 22.2186C3.39923 22.3261 3.52608 22.4114 3.66584 22.4697C3.80561 22.5279 3.95552 22.5579 4.10693 22.5579C4.25834 22.5579 4.40825 22.5279 4.54801 22.4697C4.68778 22.4114 4.81463 22.3261 4.92125 22.2186L9.84159 17.2983H14.4293C14.7335 17.2983 15.0252 17.1774 15.2403 16.9623C15.4554 16.7472 15.5763 16.4555 15.5763 16.1513V15.0044H16.7232C17.0274 15.0044 17.3191 14.8836 17.5342 14.6685C17.7493 14.4534 17.8701 14.1616 17.8701 13.8575V12.7105H19.0171C19.3212 12.7105 19.613 12.5897 19.8281 12.3746C20.0431 12.1595 20.164 11.8678 20.164 11.5636V10.4167H12.1355V11.5636C12.1355 12.172 11.8938 12.7554 11.4636 13.1856C11.0334 13.6158 10.45 13.8575 9.84159 13.8575H7.54773C6.93936 13.8575 6.3559 13.6158 5.92572 13.1856C5.49554 12.7554 5.25386 12.172 5.25386 11.5636V8.1228L2.96 10.4167Z" fill="white"/>
</svg>
