<svg width="20" height="23" viewBox="0 0 20 23" fill="none" xmlns="http://www.w3.org/2000/svg">
<path d="M9.62503 22.5579C11.1427 22.5579 12.3737 21.3268 12.3737 19.8079H6.87632C6.87632 21.3268 8.10737 22.5579 9.62503 22.5579ZM18.8801 16.125C18.0499 15.233 16.4966 13.8911 16.4966 9.49536C16.4966 6.15669 14.1557 3.48403 10.9992 2.82833V1.93286C10.9992 1.1736 10.3839 0.557861 9.62503 0.557861C8.8662 0.557861 8.25089 1.1736 8.25089 1.93286V2.82833C5.0944 3.48403 2.75347 6.15669 2.75347 9.49536C2.75347 13.8911 1.20015 15.233 0.369991 16.125C0.112178 16.4022 -0.00211873 16.7334 2.97081e-05 17.0579C0.00475627 17.7625 0.557764 18.4329 1.37933 18.4329H17.8707C18.6923 18.4329 19.2457 17.7625 19.25 17.0579C19.2522 16.7334 19.1379 16.4017 18.8801 16.125Z" fill="white"/>
</svg>
