<svg width="22" height="23" viewBox="0 0 22 23" fill="none" xmlns="http://www.w3.org/2000/svg">
<path d="M19.8445 15.4446L16.7338 15.0895C16.368 15.0465 15.9973 15.087 15.6494 15.2079C15.3015 15.3288 14.9856 15.527 14.7253 15.7876L12.4719 18.041C8.99521 16.2728 6.16934 13.4469 4.40115 9.97026L6.66683 7.70457C7.19345 7.17796 7.45064 6.44314 7.36491 5.69608L7.00975 2.60985C6.94031 2.01241 6.6536 1.46137 6.20419 1.06165C5.75478 0.661922 5.17406 0.441426 4.57261 0.44214H2.45389C1.06998 0.44214 -0.0812297 1.59335 0.00449889 2.97726C0.653587 13.4361 9.01825 21.7886 19.4649 22.4376C20.8488 22.5234 22 21.3722 22 19.9883V17.8695C22.0122 16.6326 21.0815 15.5916 19.8445 15.4446Z" fill="#595959"/>
</svg>
