<svg width="23" height="23" viewBox="0 0 23 23" fill="none" xmlns="http://www.w3.org/2000/svg">
<path fill-rule="evenodd" clip-rule="evenodd" d="M15.9506 11.4421C15.9506 11.2233 15.8637 11.0135 15.709 10.8588C15.5543 10.7041 15.3444 10.6171 15.1256 10.6171H3.05531L5.21241 8.76914C5.29475 8.69865 5.3624 8.61263 5.41149 8.51599C5.46059 8.41935 5.49017 8.31399 5.49854 8.20592C5.50692 8.09785 5.49393 7.98919 5.46031 7.88615C5.42669 7.7831 5.37311 7.68768 5.30261 7.60534C5.23212 7.523 5.1461 7.45535 5.04946 7.40626C4.95282 7.35717 4.84746 7.32759 4.73939 7.31921C4.63133 7.31083 4.52266 7.32383 4.41962 7.35744C4.31657 7.39106 4.22115 7.44465 4.13881 7.51514L0.288813 10.8151C0.198245 10.8926 0.125531 10.9887 0.0756739 11.097C0.0258167 11.2052 0 11.323 0 11.4421C0 11.5613 0.0258167 11.6791 0.0756739 11.7873C0.125531 11.8955 0.198245 11.9917 0.288813 12.0691L4.13881 15.3691C4.3051 15.5115 4.52114 15.582 4.73939 15.5651C4.95765 15.5482 5.16024 15.4452 5.30261 15.2789C5.44498 15.1126 5.51546 14.8966 5.49854 14.6784C5.48163 14.4601 5.3787 14.2575 5.21241 14.1151L3.05641 12.2671H15.1256C15.3444 12.2671 15.5543 12.1802 15.709 12.0255C15.8637 11.8708 15.9506 11.6609 15.9506 11.4421Z" fill="#595959"/>
<path d="M8.52539 7.04214C8.52539 7.81434 8.52539 8.20044 8.71129 8.47874C8.79136 8.5984 8.89413 8.70117 9.01379 8.78124C9.29209 8.96714 9.67819 8.96714 10.4504 8.96714H15.1254C15.7818 8.96714 16.4113 9.2279 16.8755 9.69205C17.3396 10.1562 17.6004 10.7857 17.6004 11.4421C17.6004 12.0985 17.3396 12.7281 16.8755 13.1922C16.4113 13.6564 15.7818 13.9171 15.1254 13.9171H10.4504C9.67819 13.9171 9.29209 13.9171 9.01379 14.1019C8.89403 14.1823 8.79124 14.2855 8.71129 14.4055C8.52539 14.6838 8.52539 15.0699 8.52539 15.8421C8.52539 18.9529 8.52539 20.5094 9.49229 21.4752C10.4581 22.4421 12.0135 22.4421 15.1243 22.4421H16.2243C19.3373 22.4421 20.8916 22.4421 21.8585 21.4752C22.8254 20.5094 22.8254 18.9529 22.8254 15.8421V7.04214C22.8254 3.93134 22.8254 2.37484 21.8585 1.40904C20.8916 0.442139 19.3362 0.442139 16.2254 0.442139H15.1254C12.0135 0.442139 10.4581 0.442139 9.49229 1.40904C8.52539 2.37484 8.52539 3.93134 8.52539 7.04214Z" fill="#595959"/>
</svg>
