<svg width="29" height="23" viewBox="0 0 29 23" fill="none" xmlns="http://www.w3.org/2000/svg">
<path d="M27.4699 12.8879H24.5783C24.1687 12.8879 23.8255 12.7491 23.5489 12.4715C23.2723 12.1939 23.1335 11.8508 23.1325 11.4421C23.1325 11.0325 23.2713 10.6894 23.5489 10.4127C23.8265 10.1361 24.1696 9.99732 24.5783 9.99636H27.4699C27.8795 9.99636 28.2231 10.1352 28.5007 10.4127C28.7783 10.6903 28.9166 11.0335 28.9157 11.4421C28.9157 11.8518 28.7769 12.1954 28.4993 12.473C28.2217 12.7506 27.8786 12.8889 27.4699 12.8879ZM21.1084 18.3819C21.3494 18.0445 21.6626 17.8518 22.0482 17.8036C22.4337 17.7554 22.7952 17.8518 23.1325 18.0927L25.4458 19.8277C25.7831 20.0686 25.9759 20.3819 26.0241 20.7674C26.0723 21.153 25.9759 21.5144 25.7349 21.8518C25.494 22.1891 25.1807 22.3819 24.7952 22.4301C24.4096 22.4783 24.0482 22.3819 23.7108 22.1409L21.3976 20.406C21.0602 20.165 20.8675 19.8518 20.8193 19.4662C20.7711 19.0807 20.8675 18.7192 21.1084 18.3819ZM25.4458 3.0566L23.1325 4.79154C22.7952 5.0325 22.4337 5.12889 22.0482 5.08069C21.6626 5.0325 21.3494 4.83973 21.1084 4.50238C20.8675 4.16503 20.7711 3.80358 20.8193 3.41804C20.8675 3.0325 21.0602 2.71925 21.3976 2.47828L23.7108 0.743343C24.0482 0.502379 24.4096 0.405994 24.7952 0.454187C25.1807 0.50238 25.494 0.695151 25.7349 1.0325C25.9759 1.36985 26.0723 1.7313 26.0241 2.11684C25.9759 2.50238 25.7831 2.81563 25.4458 3.0566ZM4.33735 15.7795H2.89157C2.09639 15.7795 1.4159 15.4966 0.85012 14.9308C0.284337 14.365 0.000963855 13.6841 0 12.8879V9.99636C0 9.20117 0.283374 8.52069 0.85012 7.95491C1.41687 7.38913 2.09735 7.10575 2.89157 7.10479H8.6747L13.6988 4.06864C14.1807 3.77949 14.6689 3.77949 15.1634 4.06864C15.6578 4.3578 15.9046 4.77949 15.9036 5.3337V17.5506C15.9036 18.1048 15.6564 18.5265 15.1619 18.8156C14.6675 19.1048 14.1798 19.1048 13.6988 18.8156L8.6747 15.7795H7.22892V20.1168C7.22892 20.5265 7.09012 20.8701 6.81253 21.1477C6.53494 21.4253 6.19181 21.5636 5.78313 21.5626C5.37349 21.5626 5.03036 21.4238 4.75373 21.1462C4.47711 20.8686 4.33831 20.5255 4.33735 20.1168V15.7795ZM17.3494 16.2855V6.59876C18 7.17708 18.5243 7.88214 18.9224 8.71395C19.3205 9.54575 19.519 10.4552 19.5181 11.4421C19.5181 12.4301 19.319 13.34 18.921 14.1718C18.5229 15.0036 17.999 15.7082 17.3494 16.2855Z" fill="#595959"/>
</svg>
