<svg width="22" height="23" viewBox="0 0 22 23" fill="none" xmlns="http://www.w3.org/2000/svg">
<path d="M7.33333 22.4421C5.98889 22.4421 4.83796 21.9634 3.88056 21.006C2.92315 20.0486 2.44444 18.8977 2.44444 17.5532V7.56158C1.73148 7.29677 1.14604 6.85392 0.688111 6.23303C0.230185 5.61214 0.000814815 4.90406 0 4.10881C0 3.09029 0.356481 2.22455 1.06944 1.51158C1.78241 0.79862 2.64815 0.442139 3.66667 0.442139C4.68518 0.442139 5.55093 0.79862 6.26389 1.51158C6.97685 2.22455 7.33333 3.09029 7.33333 4.10881C7.33333 4.90325 7.10437 5.61132 6.64644 6.23303C6.18852 6.85473 5.60267 7.29758 4.88889 7.56158V17.5532C4.88889 18.2255 5.12844 18.8011 5.60756 19.2803C6.08667 19.7594 6.66193 19.9985 7.33333 19.9977C8.00556 19.9977 8.58122 19.7585 9.06033 19.2803C9.53944 18.802 9.77859 18.2263 9.77778 17.5532V5.33103C9.77778 3.98658 10.2565 2.83566 11.2139 1.87825C12.1713 0.920843 13.3222 0.442139 14.6667 0.442139C16.0111 0.442139 17.162 0.920843 18.1194 1.87825C19.0769 2.83566 19.5556 3.98658 19.5556 5.33103V15.3227C20.2685 15.5875 20.8544 16.0308 21.3131 16.6525C21.7719 17.2742 22.0008 17.9818 22 18.7755C22 19.794 21.6435 20.6597 20.9306 21.3727C20.2176 22.0857 19.3519 22.4421 18.3333 22.4421C17.3148 22.4421 16.4491 22.0857 15.7361 21.3727C15.0231 20.6597 14.6667 19.794 14.6667 18.7755C14.6667 17.981 14.896 17.2681 15.3548 16.6366C15.8135 16.0051 16.399 15.5671 17.1111 15.3227V5.33103C17.1111 4.65881 16.872 4.08355 16.3937 3.60525C15.9154 3.12695 15.3397 2.8874 14.6667 2.88658C13.9944 2.88658 13.4192 3.12614 12.9409 3.60525C12.4626 4.08436 12.223 4.65962 12.2222 5.33103V17.5532C12.2222 18.8977 11.7435 20.0486 10.7861 21.006C9.8287 21.9634 8.67778 22.4421 7.33333 22.4421Z" fill="#595959"/>
</svg>
