<svg width="25" height="23" viewBox="0 0 25 23" fill="none" xmlns="http://www.w3.org/2000/svg">
<path d="M8.1972 8.80785C9.29122 8.80785 10.3404 8.37326 11.114 7.59967C11.8876 6.82608 12.3222 5.77688 12.3222 4.68286C12.3222 3.58884 11.8876 2.53963 11.114 1.76604C10.3404 0.992458 9.29122 0.557861 8.1972 0.557861C7.10318 0.557861 6.05397 0.992458 5.28039 1.76604C4.5068 2.53963 4.0722 3.58884 4.0722 4.68286C4.0722 5.77688 4.5068 6.82608 5.28039 7.59967C6.05397 8.37326 7.10318 8.80785 8.1972 8.80785ZM18.5097 10.1829C19.4214 10.1829 20.2957 9.82069 20.9404 9.17603C21.585 8.53138 21.9472 7.65704 21.9472 6.74536C21.9472 5.83367 21.585 4.95933 20.9404 4.31468C20.2957 3.67002 19.4214 3.30786 18.5097 3.30786C17.598 3.30786 16.7237 3.67002 16.079 4.31468C15.4344 4.95933 15.0722 5.83367 15.0722 6.74536C15.0722 7.65704 15.4344 8.53138 16.079 9.17603C16.7237 9.82069 17.598 10.1829 18.5097 10.1829ZM0.792831 20.3963C0.523243 20.2283 0.306709 19.9874 0.168261 19.7015C0.0298126 19.4156 -0.0248969 19.0964 0.0104566 18.7807C0.263945 16.7884 1.23524 14.9569 2.74232 13.6295C4.2494 12.302 6.18884 11.5696 8.1972 11.5696C10.2056 11.5696 12.145 12.302 13.6521 13.6295C15.1592 14.9569 16.1305 16.7884 16.3839 18.7807C16.4637 19.4228 16.1474 20.0457 15.6002 20.395C13.3909 21.8107 10.8212 22.5615 8.1972 22.5578C5.57288 22.5622 3.00266 21.8119 0.792831 20.3963ZM18.5097 19.8078H18.3639C18.4602 19.3995 18.4849 18.9677 18.4299 18.525C18.1949 16.6348 17.4389 14.8471 16.2464 13.3619C17.0139 13.0599 17.8339 12.9143 18.6583 12.9336C19.4828 12.953 20.2951 13.1369 21.0475 13.4745C21.7999 13.8122 22.4773 14.2968 23.0398 14.8998C23.6023 15.5029 24.0386 16.2123 24.3232 16.9863C24.4106 17.2334 24.409 17.5033 24.3186 17.7493C24.2282 17.9954 24.0548 18.2021 23.8282 18.3338C22.2232 19.3015 20.3838 19.8113 18.5097 19.8078Z" fill="white"/>
</svg>
