<svg width="8" height="7" viewBox="0 0 8 7" fill="none" xmlns="http://www.w3.org/2000/svg">
<path d="M3.19754 3.47507C3.19754 3.74232 3.2996 3.99863 3.48128 4.1876C3.66296 4.37657 3.90937 4.48274 4.1663 4.48274C4.42323 4.48274 4.66964 4.37657 4.85132 4.1876C5.03299 3.99863 5.13506 3.74232 5.13506 3.47507C5.13506 3.20783 5.03299 2.95152 4.85132 2.76255C4.66964 2.57358 4.42323 2.46741 4.1663 2.46741C3.90937 2.46741 3.66296 2.57358 3.48128 2.76255C3.2996 2.95152 3.19754 3.20783 3.19754 3.47507ZM7.92198 3.24295C7.10199 1.44625 5.86249 0.542053 4.2009 0.542053C2.53843 0.542053 1.2998 1.44625 0.479818 3.24385C0.446928 3.31629 0.429871 3.39541 0.429871 3.47552C0.429871 3.55564 0.446928 3.63476 0.479818 3.7072C1.2998 5.5039 2.5393 6.4081 4.2009 6.4081C5.86336 6.4081 7.10199 5.5039 7.92198 3.7063C7.98858 3.56055 7.98858 3.3914 7.92198 3.24295ZM4.1663 5.05855C3.32555 5.05855 2.64396 4.34958 2.64396 3.47507C2.64396 2.60057 3.32555 1.8916 4.1663 1.8916C5.00704 1.8916 5.68864 2.60057 5.68864 3.47507C5.68864 4.34958 5.00704 5.05855 4.1663 5.05855Z" fill="white"/>
</svg>
