<svg width="8" height="5" viewBox="0 0 8 5" fill="none" xmlns="http://www.w3.org/2000/svg">
<path d="M4.02557 0.000822426C4.13125 0.00630913 4.23169 0.048499 4.3096 0.120117L7.85434 3.39219C7.89818 3.43284 7.93357 3.48174 7.95851 3.53607C7.98345 3.59041 7.99743 3.64912 7.99968 3.70886C8.00192 3.76861 7.99238 3.8282 7.97159 3.88426C7.9508 3.94031 7.91917 3.99172 7.87851 4.03555C7.83786 4.07938 7.78896 4.11477 7.73462 4.1397C7.68029 4.16464 7.62157 4.17862 7.56183 4.18086C7.50209 4.1831 7.44249 4.17355 7.38644 4.15276C7.33039 4.13197 7.27898 4.10033 7.23515 4.05967L4 1.07447L0.76485 4.05967C0.721023 4.10033 0.66962 4.13196 0.613568 4.15276C0.557517 4.17355 0.49792 4.1831 0.438177 4.18086C0.378435 4.17862 0.319719 4.16464 0.265382 4.1397C0.211045 4.11477 0.162149 4.07938 0.12149 4.03555C0.0808316 3.99172 0.0492035 3.94031 0.0284136 3.88426C0.00762372 3.8282 -0.00192335 3.76861 0.000320868 3.70886C0.00256508 3.64912 0.0165581 3.59041 0.0414947 3.53607C0.0664314 3.48173 0.101823 3.43284 0.145655 3.39219L3.69041 0.120117C3.73538 0.0787156 3.78824 0.0468119 3.84583 0.0263142C3.90342 0.00581663 3.96455 -0.00285358 4.02557 0.000822426Z" fill="white"/>
</svg>
