<svg width="18" height="23" viewBox="0 0 18 23" fill="none" xmlns="http://www.w3.org/2000/svg">
<path d="M12.1 0.557861C12.6835 0.557861 13.2431 0.789646 13.6556 1.20223C14.0682 1.61481 14.3 2.17439 14.3 2.75786H4.4C3.81652 2.75786 3.25695 2.98965 2.84437 3.40223C2.43179 3.81481 2.2 4.37439 2.2 4.95786V18.1579C1.61652 18.1579 1.05694 17.9261 0.644365 17.5135C0.231785 17.1009 0 16.5413 0 15.9579V2.75786C0 2.17439 0.231785 1.61481 0.644365 1.20223C1.05694 0.789646 1.61652 0.557861 2.2 0.557861L12.1 0.557861Z" fill="white"/>
<path d="M17.5998 6.05785C17.5998 5.47437 17.368 4.91479 16.9554 4.50221C16.5429 4.08963 15.9833 3.85785 15.3998 3.85785H5.4998C4.91633 3.85785 4.35675 4.08963 3.94417 4.50221C3.53159 4.91479 3.2998 5.47437 3.2998 6.05785V20.3578C3.2998 20.9413 3.53159 21.5009 3.94417 21.9135C4.35675 22.3261 4.91633 22.5578 5.4998 22.5578H15.3998C15.9833 22.5578 16.5429 22.3261 16.9554 21.9135C17.368 21.5009 17.5998 20.9413 17.5998 20.3578V6.05785ZM9.89981 11.5578H5.4998V6.05785H9.89981V11.5578ZM15.3998 7.15785H10.9998V6.05785H15.3998V7.15785ZM15.3998 9.35785H10.9998V8.25785H15.3998V9.35785ZM15.3998 11.5578H10.9998V10.4578H15.3998V11.5578ZM15.3998 13.7578H5.4998V12.6578H15.3998V13.7578ZM15.3998 15.9578H5.4998V14.8578H15.3998V15.9578ZM15.3998 18.1578H5.4998V17.0578H15.3998V18.1578Z" fill="white"/>
</svg>
