<svg width="24" height="23" viewBox="0 0 24 23" fill="none" xmlns="http://www.w3.org/2000/svg">
<path d="M20.8421 5.18944H17.3684V2.87365C17.3684 1.59649 16.3298 0.557861 15.0526 0.557861H8.10526C6.8281 0.557861 5.78947 1.59649 5.78947 2.87365V5.18944H2.31579C1.03863 5.18944 0 6.22807 0 7.50523V10.9789H23.1579V7.50523C23.1579 6.22807 22.1193 5.18944 20.8421 5.18944ZM8.10526 2.87365H15.0526V5.18944H8.10526V2.87365ZM13.8947 14.4526H9.26316V12.1368H0V20.2421C0 21.5192 1.03863 22.5579 2.31579 22.5579H20.8421C22.1193 22.5579 23.1579 21.5192 23.1579 20.2421V12.1368H13.8947V14.4526Z" fill="#595959"/>
</svg>
