<svg width="23" height="23" viewBox="0 0 23 23" fill="none" xmlns="http://www.w3.org/2000/svg">
<path fill-rule="evenodd" clip-rule="evenodd" d="M15.9506 11.5579C15.9506 11.3391 15.8637 11.1292 15.709 10.9745C15.5543 10.8198 15.3444 10.7329 15.1256 10.7329H3.05531L5.21241 8.88486C5.29475 8.81437 5.3624 8.72835 5.41149 8.63171C5.46059 8.53507 5.49017 8.42971 5.49854 8.32164C5.50692 8.21358 5.49393 8.10492 5.46031 8.00187C5.42669 7.89882 5.37311 7.8034 5.30261 7.72106C5.23212 7.63873 5.1461 7.57108 5.04946 7.52198C4.95282 7.47289 4.84746 7.44331 4.73939 7.43493C4.63133 7.42656 4.52266 7.43955 4.41962 7.47317C4.31657 7.50678 4.22115 7.56037 4.13881 7.63086L0.288813 10.9309C0.198245 11.0083 0.125531 11.1045 0.0756739 11.2127C0.0258167 11.3209 0 11.4387 0 11.5579C0 11.677 0.0258167 11.7948 0.0756739 11.903C0.125531 12.0113 0.198245 12.1074 0.288813 12.1849L4.13881 15.4849C4.3051 15.6272 4.52114 15.6977 4.73939 15.6808C4.95765 15.6639 5.16024 15.561 5.30261 15.3947C5.44498 15.2284 5.51546 15.0123 5.49854 14.7941C5.48163 14.5758 5.3787 14.3732 5.21241 14.2309L3.05641 12.3829H15.1256C15.3444 12.3829 15.5543 12.2959 15.709 12.1412C15.8637 11.9865 15.9506 11.7767 15.9506 11.5579Z" fill="white"/>
<path d="M8.52539 7.15786C8.52539 7.93006 8.52539 8.31616 8.71129 8.59446C8.79136 8.71412 8.89413 8.8169 9.01379 8.89696C9.29209 9.08286 9.67819 9.08286 10.4504 9.08286H15.1254C15.7818 9.08286 16.4113 9.34362 16.8755 9.80777C17.3396 10.2719 17.6004 10.9015 17.6004 11.5579C17.6004 12.2143 17.3396 12.8438 16.8755 13.308C16.4113 13.7721 15.7818 14.0329 15.1254 14.0329H10.4504C9.67819 14.0329 9.29209 14.0329 9.01379 14.2177C8.89403 14.298 8.79124 14.4012 8.71129 14.5213C8.52539 14.7996 8.52539 15.1857 8.52539 15.9579C8.52539 19.0687 8.52539 20.6252 9.49229 21.591C10.4581 22.5579 12.0135 22.5579 15.1243 22.5579H16.2243C19.3373 22.5579 20.8916 22.5579 21.8585 21.591C22.8254 20.6252 22.8254 19.0687 22.8254 15.9579V7.15786C22.8254 4.04706 22.8254 2.49056 21.8585 1.52476C20.8916 0.557861 19.3362 0.557861 16.2254 0.557861H15.1254C12.0135 0.557861 10.4581 0.557861 9.49229 1.52476C8.52539 2.49056 8.52539 4.04706 8.52539 7.15786Z" fill="white"/>
</svg>
