<svg width="21" height="23" viewBox="0 0 21 23" fill="none" xmlns="http://www.w3.org/2000/svg">
<path fill-rule="evenodd" clip-rule="evenodd" d="M12.4072 0.609339C12.0002 0.442139 11.4832 0.442139 10.4503 0.442139C9.41745 0.442139 8.90155 0.442139 8.49345 0.609339C7.95164 0.831771 7.52036 1.26028 7.29445 1.80064C7.19105 2.04594 7.15145 2.33304 7.13495 2.74994C7.12761 3.052 7.04335 3.3472 6.89014 3.60763C6.73692 3.86806 6.51982 4.0851 6.25935 4.23824C5.99397 4.38575 5.69565 4.4639 5.39203 4.46544C5.08841 4.46698 4.78931 4.39186 4.52245 4.24704C4.15065 4.05124 3.88115 3.94344 3.61495 3.90824C3.03256 3.83177 2.44353 3.98832 1.97595 4.34384C1.62615 4.61004 1.36765 5.05444 0.851747 5.94214C0.334747 6.82984 0.0773471 7.27314 0.0190471 7.70764C-0.0579529 8.28624 0.100447 8.87144 0.459047 9.33454C0.621847 9.54574 0.851747 9.72284 1.20705 9.94504C1.73175 10.2717 2.06835 10.8283 2.06835 11.4421C2.06835 12.0559 1.73175 12.6125 1.20815 12.9381C0.851747 13.1614 0.621847 13.3385 0.457947 13.5497C0.280938 13.7785 0.151013 14.04 0.0756799 14.3193C0.00034638 14.5985 -0.0189021 14.8899 0.0190471 15.1766C0.0773471 15.61 0.334747 16.0544 0.851747 16.9421C1.36875 17.8298 1.62615 18.2731 1.97595 18.5404C2.44235 18.8957 3.03195 19.0519 3.61495 18.976C3.88115 18.9408 4.15065 18.833 4.52245 18.6372C4.78945 18.4922 5.08874 18.417 5.39258 18.4185C5.69641 18.4201 5.99493 18.4983 6.26045 18.646C6.79505 18.954 7.11185 19.5205 7.13495 20.1343C7.15145 20.5523 7.19105 20.8383 7.29445 21.0836C7.51885 21.6226 7.95005 22.0516 8.49345 22.2749C8.90045 22.4421 9.41745 22.4421 10.4503 22.4421C11.4832 22.4421 12.0002 22.4421 12.4072 22.2749C12.949 22.0525 13.3803 21.624 13.6062 21.0836C13.7096 20.8383 13.7492 20.5523 13.7657 20.1343C13.7877 19.5205 14.1056 18.9529 14.6413 18.646C14.9067 18.4985 15.205 18.4204 15.5087 18.4188C15.8123 18.4173 16.1114 18.4924 16.3782 18.6372C16.75 18.833 17.0195 18.9408 17.2857 18.976C17.8687 19.053 18.4583 18.8957 18.9247 18.5404C19.2745 18.2742 19.533 17.8298 20.0489 16.9421C20.5659 16.0544 20.8233 15.6111 20.8816 15.1766C20.9194 14.8898 20.9 14.5984 20.8245 14.3191C20.749 14.0399 20.6188 13.7784 20.4416 13.5497C20.2788 13.3385 20.0489 13.1614 19.6936 12.9392C19.1689 12.6125 18.8323 12.0559 18.8323 11.4421C18.8323 10.8283 19.1689 10.2717 19.6925 9.94614C20.0489 9.72284 20.2788 9.54574 20.4427 9.33454C20.6198 9.1058 20.7497 8.84426 20.825 8.56501C20.9003 8.28577 20.9196 7.99436 20.8816 7.70764C20.8233 7.27424 20.5659 6.82984 20.0489 5.94214C19.5319 5.05444 19.2745 4.61114 18.9247 4.34384C18.4572 3.98832 17.8681 3.83177 17.2857 3.90824C17.0195 3.94344 16.75 4.05124 16.3782 4.24704C16.1112 4.39205 15.8119 4.46728 15.5081 4.46574C15.2043 4.4642 14.9058 4.38595 14.6402 4.23824C14.38 4.08496 14.1631 3.86786 14.0101 3.60745C13.8571 3.34703 13.773 3.0519 13.7657 2.74994C13.7492 2.33194 13.7096 2.04594 13.6062 1.80064C13.4944 1.53305 13.331 1.29011 13.1253 1.0857C12.9195 0.881295 12.6756 0.719424 12.4072 0.609339ZM10.4503 14.7421C12.2873 14.7421 13.7756 13.2648 13.7756 11.4421C13.7756 9.61944 12.2862 8.14214 10.4503 8.14214C8.61335 8.14214 7.12505 9.61944 7.12505 11.4421C7.12505 13.2648 8.61445 14.7421 10.4503 14.7421Z" fill="#595959"/>
</svg>
