<svg width="21" height="23" viewBox="0 0 21 23" fill="none" xmlns="http://www.w3.org/2000/svg">
<path fill-rule="evenodd" clip-rule="evenodd" d="M12.4072 0.725061C12.0002 0.557861 11.4832 0.557861 10.4503 0.557861C9.41745 0.557861 8.90155 0.557861 8.49345 0.725061C7.95164 0.947493 7.52036 1.376 7.29445 1.91636C7.19105 2.16166 7.15145 2.44876 7.13495 2.86566C7.12761 3.16773 7.04335 3.46293 6.89014 3.72335C6.73692 3.98378 6.51982 4.20082 6.25935 4.35396C5.99397 4.50148 5.69565 4.57962 5.39203 4.58116C5.08841 4.5827 4.78931 4.50758 4.52245 4.36276C4.15065 4.16696 3.88115 4.05916 3.61495 4.02396C3.03256 3.94749 2.44353 4.10404 1.97595 4.45956C1.62615 4.72576 1.36765 5.17016 0.851747 6.05786C0.334747 6.94556 0.0773471 7.38886 0.0190471 7.82336C-0.0579529 8.40196 0.100447 8.98716 0.459047 9.45026C0.621847 9.66146 0.851747 9.83856 1.20705 10.0608C1.73175 10.3875 2.06835 10.9441 2.06835 11.5579C2.06835 12.1717 1.73175 12.7283 1.20815 13.0539C0.851747 13.2772 0.621847 13.4543 0.457947 13.6655C0.280938 13.8942 0.151013 14.1557 0.0756799 14.435C0.00034638 14.7142 -0.0189021 15.0056 0.0190471 15.2924C0.0773471 15.7258 0.334747 16.1702 0.851747 17.0579C1.36875 17.9456 1.62615 18.3889 1.97595 18.6562C2.44235 19.0115 3.03195 19.1677 3.61495 19.0918C3.88115 19.0566 4.15065 18.9488 4.52245 18.753C4.78945 18.608 5.08874 18.5327 5.39258 18.5343C5.69641 18.5358 5.99493 18.6141 6.26045 18.7618C6.79505 19.0698 7.11185 19.6363 7.13495 20.2501C7.15145 20.6681 7.19105 20.9541 7.29445 21.1994C7.51885 21.7384 7.95005 22.1674 8.49345 22.3907C8.90045 22.5579 9.41745 22.5579 10.4503 22.5579C11.4832 22.5579 12.0002 22.5579 12.4072 22.3907C12.949 22.1682 13.3803 21.7397 13.6062 21.1994C13.7096 20.9541 13.7492 20.6681 13.7657 20.2501C13.7877 19.6363 14.1056 19.0687 14.6413 18.7618C14.9067 18.6142 15.205 18.5361 15.5087 18.5346C15.8123 18.533 16.1114 18.6081 16.3782 18.753C16.75 18.9488 17.0195 19.0566 17.2857 19.0918C17.8687 19.1688 18.4583 19.0115 18.9247 18.6562C19.2745 18.39 19.533 17.9456 20.0489 17.0579C20.5659 16.1702 20.8233 15.7269 20.8816 15.2924C20.9194 15.0056 20.9 14.7141 20.8245 14.4349C20.749 14.1556 20.6188 13.8941 20.4416 13.6655C20.2788 13.4543 20.0489 13.2772 19.6936 13.055C19.1689 12.7283 18.8323 12.1717 18.8323 11.5579C18.8323 10.9441 19.1689 10.3875 19.6925 10.0619C20.0489 9.83856 20.2788 9.66146 20.4427 9.45026C20.6198 9.22153 20.7497 8.95998 20.825 8.68074C20.9003 8.40149 20.9196 8.11009 20.8816 7.82336C20.8233 7.38996 20.5659 6.94556 20.0489 6.05786C19.5319 5.17016 19.2745 4.72686 18.9247 4.45956C18.4572 4.10404 17.8681 3.94749 17.2857 4.02396C17.0195 4.05916 16.75 4.16696 16.3782 4.36276C16.1112 4.50777 15.8119 4.583 15.5081 4.58146C15.2043 4.57992 14.9058 4.50167 14.6402 4.35396C14.38 4.20069 14.1631 3.98359 14.0101 3.72317C13.8571 3.46275 13.773 3.16762 13.7657 2.86566C13.7492 2.44766 13.7096 2.16166 13.6062 1.91636C13.4944 1.64877 13.331 1.40583 13.1253 1.20142C12.9195 0.997017 12.6756 0.835147 12.4072 0.725061ZM10.4503 14.8579C12.2873 14.8579 13.7756 13.3806 13.7756 11.5579C13.7756 9.73516 12.2862 8.25786 10.4503 8.25786C8.61335 8.25786 7.12505 9.73516 7.12505 11.5579C7.12505 13.3806 8.61445 14.8579 10.4503 14.8579Z" fill="white"/>
</svg>
