<svg width="10" height="8" viewBox="0 0 10 8" fill="none" xmlns="http://www.w3.org/2000/svg">
<path d="M4.22391 4.06776C4.22391 4.39108 4.34739 4.70117 4.56719 4.9298C4.78699 5.15842 5.0851 5.28686 5.39595 5.28686C5.70679 5.28686 6.0049 5.15842 6.2247 4.9298C6.4445 4.70117 6.56799 4.39108 6.56799 4.06776C6.56799 3.74443 6.4445 3.43435 6.2247 3.20572C6.0049 2.97709 5.70679 2.84865 5.39595 2.84865C5.0851 2.84865 4.78699 2.97709 4.56719 3.20572C4.34739 3.43435 4.22391 3.74443 4.22391 4.06776ZM9.93969 3.78693C8.94765 1.61322 7.44806 0.519287 5.4378 0.519287C3.4265 0.519287 1.92796 1.61322 0.935917 3.78802C0.896125 3.87566 0.875488 3.97138 0.875488 4.0683C0.875488 4.16523 0.896125 4.26095 0.935917 4.34859C1.92796 6.5223 3.42755 7.61623 5.4378 7.61623C7.44911 7.61623 8.94765 6.5223 9.93969 4.3475C10.0203 4.17116 10.0203 3.96653 9.93969 3.78693ZM5.39595 5.9835C4.37878 5.9835 3.55417 5.12577 3.55417 4.06776C3.55417 3.00975 4.37878 2.15202 5.39595 2.15202C6.41311 2.15202 7.23772 3.00975 7.23772 4.06776C7.23772 5.12577 6.41311 5.9835 5.39595 5.9835Z" fill="#6D6D6D"/>
</svg>
