<svg width="18" height="23" viewBox="0 0 18 23" fill="none" xmlns="http://www.w3.org/2000/svg">
<path d="M12.1 0.442139C12.6835 0.442139 13.2431 0.673924 13.6556 1.0865C14.0682 1.49908 14.3 2.05866 14.3 2.64214H4.4C3.81652 2.64214 3.25695 2.87392 2.84437 3.2865C2.43179 3.69908 2.2 4.25866 2.2 4.84214V18.0421C1.61652 18.0421 1.05694 17.8104 0.644365 17.3978C0.231785 16.9852 0 16.4256 0 15.8421V2.64214C0 2.05866 0.231785 1.49908 0.644365 1.0865C1.05694 0.673924 1.61652 0.442139 2.2 0.442139L12.1 0.442139Z" fill="#595959"/>
<path d="M17.5998 5.94213C17.5998 5.35865 17.368 4.79907 16.9554 4.38649C16.5429 3.97391 15.9833 3.74213 15.3998 3.74213H5.4998C4.91633 3.74213 4.35675 3.97391 3.94417 4.38649C3.53159 4.79907 3.2998 5.35865 3.2998 5.94213V20.2421C3.2998 20.8256 3.53159 21.3852 3.94417 21.7978C4.35675 22.2103 4.91633 22.4421 5.4998 22.4421H15.3998C15.9833 22.4421 16.5429 22.2103 16.9554 21.7978C17.368 21.3852 17.5998 20.8256 17.5998 20.2421V5.94213ZM9.89981 11.4421H5.4998V5.94213H9.89981V11.4421ZM15.3998 7.04213H10.9998V5.94213H15.3998V7.04213ZM15.3998 9.24213H10.9998V8.14213H15.3998V9.24213ZM15.3998 11.4421H10.9998V10.3421H15.3998V11.4421ZM15.3998 13.6421H5.4998V12.5421H15.3998V13.6421ZM15.3998 15.8421H5.4998V14.7421H15.3998V15.8421ZM15.3998 18.0421H5.4998V16.9421H15.3998V18.0421Z" fill="#595959"/>
</svg>
