<svg width="22" height="23" viewBox="0 0 22 23" fill="none" xmlns="http://www.w3.org/2000/svg">
<path d="M1.22222 12.6644H8.55556C9.22778 12.6644 9.77778 12.1144 9.77778 11.4421V1.66436C9.77778 0.992139 9.22778 0.442139 8.55556 0.442139H1.22222C0.55 0.442139 0 0.992139 0 1.66436V11.4421C0 12.1144 0.55 12.6644 1.22222 12.6644ZM1.22222 22.4421H8.55556C9.22778 22.4421 9.77778 21.8921 9.77778 21.2199V16.331C9.77778 15.6588 9.22778 15.1088 8.55556 15.1088H1.22222C0.55 15.1088 0 15.6588 0 16.331V21.2199C0 21.8921 0.55 22.4421 1.22222 22.4421ZM13.4444 22.4421H20.7778C21.45 22.4421 22 21.8921 22 21.2199V11.4421C22 10.7699 21.45 10.2199 20.7778 10.2199H13.4444C12.7722 10.2199 12.2222 10.7699 12.2222 11.4421V21.2199C12.2222 21.8921 12.7722 22.4421 13.4444 22.4421ZM12.2222 1.66436V6.55325C12.2222 7.22547 12.7722 7.77547 13.4444 7.77547H20.7778C21.45 7.77547 22 7.22547 22 6.55325V1.66436C22 0.992139 21.45 0.442139 20.7778 0.442139H13.4444C12.7722 0.442139 12.2222 0.992139 12.2222 1.66436Z" fill="#595959"/>
</svg>
