<svg width="22" height="23" viewBox="0 0 22 23" fill="none" xmlns="http://www.w3.org/2000/svg">
<path d="M9.84159 4.56628H13.2824L17.0558 0.781399C17.1624 0.673899 17.2893 0.588574 17.429 0.530346C17.5688 0.472117 17.7187 0.442139 17.8701 0.442139C18.0215 0.442139 18.1714 0.472117 18.3112 0.530346C18.451 0.588574 18.5778 0.673899 18.6844 0.781399L21.6435 3.75196C21.8571 3.96685 21.9771 4.25754 21.9771 4.56054C21.9771 4.86355 21.8571 5.15424 21.6435 5.36913L19.0171 8.00708H9.84159V10.3009C9.84159 10.6051 9.72075 10.8969 9.50566 11.1119C9.29057 11.327 8.99884 11.4479 8.69466 11.4479C8.39047 11.4479 8.09875 11.327 7.88366 11.1119C7.66856 10.8969 7.54773 10.6051 7.54773 10.3009V6.86014C7.54773 6.25177 7.7894 5.66832 8.21958 5.23813C8.64977 4.80795 9.23322 4.56628 9.84159 4.56628ZM2.96 10.3009V14.8887L0.33352 17.5151C0.119902 17.73 0 18.0207 0 18.3237C0 18.6267 0.119902 18.9174 0.33352 19.1323L3.29261 22.1029C3.39923 22.2104 3.52608 22.2957 3.66584 22.3539C3.80561 22.4122 3.95552 22.4421 4.10693 22.4421C4.25834 22.4421 4.40825 22.4122 4.54801 22.3539C4.68778 22.2957 4.81463 22.2104 4.92125 22.1029L9.84159 17.1825H14.4293C14.7335 17.1825 15.0252 17.0617 15.2403 16.8466C15.4554 16.6315 15.5763 16.3398 15.5763 16.0356V14.8887H16.7232C17.0274 14.8887 17.3191 14.7678 17.5342 14.5527C17.7493 14.3377 17.8701 14.0459 17.8701 13.7417V12.5948H19.0171C19.3212 12.5948 19.613 12.474 19.8281 12.2589C20.0431 12.0438 20.164 11.7521 20.164 11.4479V10.3009H12.1355V11.4479C12.1355 12.0562 11.8938 12.6397 11.4636 13.0699C11.0334 13.5001 10.45 13.7417 9.84159 13.7417H7.54773C6.93936 13.7417 6.3559 13.5001 5.92572 13.0699C5.49554 12.6397 5.25386 12.0562 5.25386 11.4479V8.00708L2.96 10.3009Z" fill="#595959"/>
</svg>
