<svg width="25" height="22" viewBox="0 0 25 22" fill="none" xmlns="http://www.w3.org/2000/svg">
<path d="M8.1972 8.24999C9.29122 8.24999 10.3404 7.8154 11.114 7.04181C11.8876 6.26822 12.3222 5.21901 12.3222 4.125C12.3222 3.03098 11.8876 1.98177 11.114 1.20818C10.3404 0.434597 9.29122 0 8.1972 0C7.10318 0 6.05397 0.434597 5.28039 1.20818C4.5068 1.98177 4.0722 3.03098 4.0722 4.125C4.0722 5.21901 4.5068 6.26822 5.28039 7.04181C6.05397 7.8154 7.10318 8.24999 8.1972 8.24999ZM18.5097 9.62499C19.4214 9.62499 20.2957 9.26283 20.9404 8.61817C21.585 7.97352 21.9472 7.09918 21.9472 6.18749C21.9472 5.27581 21.585 4.40147 20.9404 3.75682C20.2957 3.11216 19.4214 2.75 18.5097 2.75C17.598 2.75 16.7237 3.11216 16.079 3.75682C15.4344 4.40147 15.0722 5.27581 15.0722 6.18749C15.0722 7.09918 15.4344 7.97352 16.079 8.61817C16.7237 9.26283 17.598 9.62499 18.5097 9.62499ZM0.792831 19.8385C0.523243 19.6705 0.306709 19.4296 0.168261 19.1437C0.0298126 18.8578 -0.0248969 18.5385 0.0104566 18.2229C0.263945 16.2306 1.23524 14.3991 2.74232 13.0716C4.2494 11.7441 6.18884 11.0118 8.1972 11.0118C10.2056 11.0118 12.145 11.7441 13.6521 13.0716C15.1592 14.3991 16.1305 16.2306 16.3839 18.2229C16.4637 18.865 16.1474 19.4879 15.6002 19.8371C13.3909 21.2529 10.8212 22.0036 8.1972 22C5.57288 22.0043 3.00266 21.254 0.792831 19.8385ZM18.5097 19.25H18.3639C18.4602 18.8416 18.4849 18.4099 18.4299 17.9671C18.1949 16.0769 17.4389 14.2893 16.2464 12.804C17.0139 12.502 17.8339 12.3564 18.6583 12.3758C19.4828 12.3951 20.2951 12.579 21.0475 12.9167C21.7999 13.2543 22.4773 13.7389 23.0398 14.342C23.6023 14.9451 24.0386 15.6544 24.3232 16.4285C24.4106 16.6756 24.409 16.9454 24.3186 17.1915C24.2282 17.4375 24.0548 17.6442 23.8282 17.776C22.2232 18.7437 20.3838 19.2534 18.5097 19.25Z" fill="#595959"/>
</svg>
