<svg width="24" height="22" viewBox="0 0 24 22" fill="none" xmlns="http://www.w3.org/2000/svg">
<path d="M20.8421 4.63158H17.3684V2.31579C17.3684 1.03863 16.3298 0 15.0526 0H8.10526C6.8281 0 5.78947 1.03863 5.78947 2.31579V4.63158H2.31579C1.03863 4.63158 0 5.67021 0 6.94737V10.4211H23.1579V6.94737C23.1579 5.67021 22.1193 4.63158 20.8421 4.63158ZM8.10526 2.31579H15.0526V4.63158H8.10526V2.31579ZM13.8947 13.8947H9.26316V11.5789H0V19.6842C0 20.9614 1.03863 22 2.31579 22H20.8421C22.1193 22 23.1579 20.9614 23.1579 19.6842V11.5789H13.8947V13.8947Z" fill="white"/>
</svg>
