<svg width="22" height="23" viewBox="0 0 22 23" fill="none" xmlns="http://www.w3.org/2000/svg">
<path d="M3.09656 22.5579C4.80674 22.5579 6.19311 21.1715 6.19311 19.4613C6.19311 17.7511 4.80674 16.3647 3.09656 16.3647C1.38638 16.3647 0 17.7511 0 19.4613C0 21.1715 1.38638 22.5579 3.09656 22.5579Z" fill="white"/>
<path d="M2.2585 8.6801C1.06533 8.48124 0 9.46134 0 10.6687C0 11.6772 0.752833 12.4869 1.74714 12.6573C5.89482 13.3818 9.16183 16.663 9.90046 20.8107C10.0709 21.805 10.8806 22.5578 11.8891 22.5578C13.0964 22.5578 14.0765 21.4925 13.8919 20.2993C13.4183 17.3864 12.0398 14.6964 9.95168 12.6109C7.86361 10.5254 5.172 9.15012 2.2585 8.6801ZM2.21588 0.569399C1.03692 0.441559 0 1.39325 0 2.57222C0 3.60914 0.781241 4.4614 1.80396 4.56083C10.3408 5.41309 17.1305 12.2028 17.9828 20.7396C18.0822 21.7765 18.9344 22.5578 19.9714 22.5578C21.1645 22.5578 22.102 21.5209 21.9884 20.3419C20.9515 9.91589 12.6561 1.60632 2.21588 0.569399Z" fill="white"/>
</svg>
